<svg width="280" height="60" viewBox="0 0 280 60" fill="none" xmlns="http://www.w3.org/2000/svg">
<path d="M160.114 12.4509H160.229L164.75 25.2763H155.538L160.114 12.4509ZM154.182 0L137.793 40.2888H149.548L152.488 33.2881H167.75L170.52 40.2888H182.329L166.278 0H154.182ZM263.515 30.4169C263.515 30.4169 264.042 24.6996 271.451 24.8419C271.451 24.8419 252.405 10.6932 230.864 23.9855C209.325 37.2778 196.869 31.4181 196.869 31.4181V24.4724H209.358V15.6017H196.869V8.86818H210.037V0H185.791V40.2888C185.791 40.2888 208.649 48.3281 232.453 33.4179C250.589 22.0556 263.515 30.4169 263.515 30.4169ZM279.613 33.5253C279.613 30.5093 277.023 28.0576 273.831 28.0576C270.639 28.0576 268.049 30.5068 268.049 33.5253C268.049 36.5438 270.639 38.993 273.831 38.993C277.023 38.993 279.613 36.5413 279.613 33.5253Z" fill="url(#paint0_linear_102_226)"/>
<path d="M15.3739 17.9935L13.2458 20.0733C11.4749 18.4479 9.74391 17.6365 8.0504 17.6365C6.97385 17.6365 6.05466 17.9711 5.28784 18.6427C4.52351 19.3143 4.13885 20.0982 4.13885 20.992C4.13885 21.7835 4.45607 22.535 5.08801 23.2515C5.71996 23.9805 7.04379 24.8394 9.0695 25.8231C11.5373 27.0315 13.2109 28.1949 14.0951 29.3109C14.9643 30.4444 15.3964 31.7177 15.3964 33.1383C15.3964 35.1332 14.6571 36.8259 13.1709 38.2116C11.6872 39.5972 9.83134 40.2913 7.6033 40.2913C6.11711 40.2913 4.70086 39.9867 3.35204 39.3725C2.00074 38.7633 0.884221 37.9195 0 36.8459L2.08067 34.6114C3.77168 36.414 5.56759 37.3178 7.46342 37.3178C8.78975 37.3178 9.91876 36.9133 10.8529 36.1094C11.7846 35.3054 12.2517 34.3592 12.2517 33.2707C12.2517 32.3768 11.9445 31.5779 11.3275 30.8788C10.7106 30.1923 9.32178 29.3284 7.15619 28.2848C4.83324 27.1513 3.25213 26.0353 2.41537 24.9318C1.57861 23.8282 1.15898 22.5699 1.15898 21.1518C1.15898 19.3068 1.82339 17.7688 3.15971 16.5479C4.49354 15.3246 6.18205 14.7129 8.21776 14.7129C10.5882 14.7129 12.9736 15.8089 15.3739 18.001M24.1237 6.29662H27.4358V15.3321H32.6862V18.0385H27.4358V39.6646H24.1237V18.0385H19.6052V15.3321H24.1237V6.29662ZM37.2272 15.3321H40.5393V26.6919C40.5393 29.4657 40.6966 31.3732 41.0138 32.4193C41.4859 33.9073 42.3926 35.0857 43.724 35.9521C45.0578 36.8159 46.6489 37.2478 48.4973 37.2478C50.3456 37.2478 51.9092 36.8259 53.2006 35.9845C54.487 35.1407 55.3762 34.0371 55.8633 32.664C56.1955 31.7252 56.3628 29.7354 56.3628 26.6919V15.3321H59.7448V27.2736C59.7448 30.6267 59.3302 33.1583 58.5009 34.8535C57.6742 36.5538 56.4278 37.8845 54.7642 38.8482C53.1032 39.8069 51.0175 40.2888 48.5097 40.2888C46.0019 40.2888 43.9088 39.8069 42.2303 38.8482C40.5518 37.8845 39.2979 36.5413 38.4686 34.8211C37.6393 33.0984 37.2272 30.5068 37.2272 27.0489V15.3296V15.3321ZM79.5549 17.7264C77.714 17.7264 76.0105 18.1558 74.4494 19.0122C72.8908 19.866 71.6518 21.0694 70.7301 22.6174C69.8085 24.1653 69.3489 25.8056 69.3489 27.5308C69.3489 29.256 69.8135 30.8788 70.7426 32.4467C71.6693 34.0097 72.9182 35.228 74.4868 36.0969C76.053 36.9682 77.734 37.4026 79.5324 37.4026C81.3308 37.4026 83.0593 36.9707 84.6829 36.1069C86.3039 35.243 87.5528 34.0746 88.4271 32.6015C89.3013 31.126 89.7384 29.4632 89.7384 27.6182C89.7384 24.8069 88.7568 22.4526 86.7985 20.5601C84.8377 18.6701 82.4223 17.7239 79.5549 17.7239M92.7882 5.9396V39.6621H89.5236V35.4802C88.1348 37.0731 86.5787 38.274 84.8527 39.0804C83.1267 39.8843 81.2384 40.2838 79.1877 40.2838C75.5459 40.2838 72.4361 39.0355 69.8559 36.5388C67.2782 34.0446 65.9893 31.0062 65.9893 27.4284C65.9893 23.8507 67.2907 20.9296 69.8934 18.4404C72.4936 15.9512 75.6258 14.7079 79.2851 14.7079C81.3982 14.7079 83.3066 15.1323 85.0176 15.9812C86.7286 16.8301 88.2322 18.1034 89.5236 19.8061V5.94209H92.7882V5.9396ZM99.7895 15.3346H103.099V39.6621H99.7895V15.3346ZM101.433 5.31543C102.185 5.31543 102.829 5.57009 103.364 6.07692C103.898 6.58374 104.163 7.19542 104.163 7.91197C104.163 8.62851 103.896 9.21523 103.364 9.72205C102.832 10.2289 102.187 10.4835 101.433 10.4835C100.679 10.4835 100.059 10.2314 99.5248 9.72205C98.9902 9.21523 98.723 8.61353 98.723 7.91197C98.723 7.2104 98.9902 6.58624 99.5248 6.07692C100.057 5.57009 100.694 5.31543 101.433 5.31543ZM122.15 17.7713C119.397 17.7713 117.029 18.7325 115.051 20.6575C113.073 22.5799 112.086 24.9068 112.086 27.6332C112.086 29.3933 112.536 31.0311 113.44 32.5516C114.342 34.0721 115.558 35.248 117.094 36.0719C118.628 36.9008 120.314 37.3128 122.15 37.3128C123.986 37.3128 125.669 36.9008 127.205 36.0719C128.739 35.2455 129.958 34.0721 130.86 32.5516C131.761 31.0311 132.213 29.3908 132.213 27.6332C132.213 24.9043 131.219 22.5774 129.236 20.6575C127.25 18.7325 124.887 17.7713 122.15 17.7713ZM122.162 14.7079C126.124 14.7079 129.413 16.0661 132.021 18.7775C134.389 21.2542 135.575 24.1803 135.575 27.5633C135.575 30.9462 134.324 33.9348 131.819 36.4764C129.316 39.018 126.099 40.2888 122.165 40.2888C118.231 40.2888 114.989 39.0205 112.486 36.4764C109.983 33.9348 108.732 30.9637 108.732 27.5633C108.732 24.1628 109.916 21.2717 112.284 18.7999C114.889 16.0711 118.183 14.7079 122.165 14.7079M41.3311 59.7454H39.3303V52.0506H41.3311V59.7454ZM45.7022 52.0506H47.7029L51.3697 56.7543H51.3897V52.0506H53.3904V59.7454H51.3897L47.7229 55.0291H47.7029V59.7454H45.7022V52.0506ZM60.8264 59.7454H58.8257V53.7434H57.1721V52.0506H62.4824V53.7434H60.8289V59.7454H60.8264ZM68.2723 53.7434V55.0291H70.5303V56.7244H68.2723V58.0501H70.6527V59.7454H66.2716V52.0506H70.6527V53.7434H68.2723ZM81.3533 59.7454H78.8605L76.9722 56.7868H76.9522V59.7454H74.9514V52.0506H77.9438C79.465 52.0506 80.6189 52.7746 80.6189 54.4175C80.6189 55.4785 80.027 56.3973 78.9329 56.5921L81.3533 59.7454ZM76.9522 55.4985H77.147C77.8014 55.4985 78.5358 55.3762 78.5358 54.5373C78.5358 53.6984 77.8014 53.5786 77.147 53.5786H76.9522V55.4985ZM86.9584 59.7454H84.9576V52.0506H86.9584V59.7454ZM99.4598 55.7557C99.4598 58.2449 97.6714 60 95.2011 60C92.7308 60 90.9423 58.2449 90.9423 55.7557C90.9423 53.4288 92.9855 51.7959 95.2011 51.7959C97.4166 51.7959 99.4598 53.4288 99.4598 55.7557ZM93.0255 55.7657C93.0255 57.0939 94.0071 58.0626 95.2011 58.0626C96.395 58.0626 97.3767 57.0939 97.3767 55.7657C97.3767 54.7046 96.3975 53.7359 95.2011 53.7359C94.0046 53.7359 93.0255 54.7046 93.0255 55.7657ZM109.856 59.7454H107.363L105.475 56.7868H105.455V59.7454H103.454V52.0506H106.446C107.967 52.0506 109.121 52.7746 109.121 54.4175C109.121 55.4785 108.529 56.3973 107.435 56.5921L109.856 59.7454ZM105.455 55.4985H105.649C106.304 55.4985 107.038 55.3762 107.038 54.5373C107.038 53.6984 106.304 53.5786 105.649 53.5786H105.455V55.4985ZM120.027 52.0506H122.867C125.012 52.0506 126.778 53.7334 126.778 55.898C126.778 58.0626 125 59.7454 122.867 59.7454H120.027V52.0506ZM122.027 58.0501H122.477C123.673 58.0501 124.693 57.396 124.693 55.8955C124.693 54.5173 123.783 53.7409 122.497 53.7409H122.027V58.0476V58.0501ZM132.77 53.7434V55.0291H135.026V56.7244H132.77V58.0501H135.151V59.7454H130.77V52.0506H135.151V53.7434H132.77ZM143.676 54.0305C143.309 53.7234 142.839 53.5211 142.35 53.5211C141.982 53.5211 141.493 53.7359 141.493 54.1628C141.493 54.6122 142.035 54.7845 142.382 54.8993L142.894 55.0516C143.966 55.3687 144.792 55.908 144.792 57.1538C144.792 57.9203 144.608 58.7042 143.996 59.226C143.394 59.7354 142.587 59.9501 141.81 59.9501C140.841 59.9501 139.889 59.623 139.102 59.0737L139.959 57.4609C140.459 57.9003 141.053 58.2573 141.738 58.2573C142.207 58.2573 142.707 58.0227 142.707 57.4809C142.707 56.9391 141.92 56.7269 141.49 56.6045C140.236 56.2475 139.407 55.9205 139.407 54.4299C139.407 52.9394 140.521 51.8459 142.062 51.8459C142.839 51.8459 143.788 52.0906 144.473 52.48L143.676 54.033V54.0305ZM150.805 59.7454H148.804V52.0506H150.805V59.7454ZM162.856 55.4461C162.836 56.5696 162.757 57.5283 162.07 58.4895C161.315 59.5406 160.181 60 158.895 60C156.475 60 154.789 58.3572 154.789 55.9379C154.789 53.5187 156.482 51.7935 158.965 51.7935C160.551 51.7935 161.775 52.5075 162.437 53.9481L160.536 54.7445C160.261 54.0105 159.679 53.5211 158.872 53.5211C157.556 53.5211 156.872 54.777 156.872 55.9504C156.872 57.1238 157.586 58.3597 158.902 58.3597C159.769 58.3597 160.434 57.9103 160.514 57.024H158.88V55.4511H162.854V55.4461H162.856ZM166.838 52.0506H168.839L172.505 56.7543H172.528V52.0506H174.529V59.7454H172.528L168.861 55.0291H168.841V59.7454H166.84V52.0506H166.838ZM187.467 59.7454H185.467V52.0506H187.467V59.7454ZM191.838 52.0506H193.839L197.506 56.7543H197.526V52.0506H199.527V59.7454H197.526L193.859 55.0291H193.837V59.7454H191.836V52.0506H191.838ZM209.4 54.6297C208.993 54.0804 208.329 53.7833 207.644 53.7833C206.421 53.7833 205.591 54.722 205.591 55.918C205.591 57.1139 206.428 58.0102 207.674 58.0102C208.326 58.0102 208.981 57.6931 209.398 57.1938V59.5931C208.736 59.7978 208.254 59.9501 207.632 59.9501C206.558 59.9501 205.539 59.5431 204.74 58.8166C203.893 58.0501 203.506 57.0514 203.506 55.908C203.506 54.8569 203.905 53.8482 204.64 53.0917C205.394 52.3153 206.488 51.8459 207.57 51.8459C208.214 51.8459 208.806 51.9882 209.398 52.2354V54.6322H209.4V54.6297Z" fill="#181818"/>
<defs>
<linearGradient id="paint0_linear_102_226" x1="226.83" y1="3.73752" x2="189.173" y2="56.341" gradientUnits="userSpaceOnUse">
<stop offset="0.23" stop-color="#CDA549"/>
<stop offset="1" stop-color="#B68C50"/>
</linearGradient>
</defs>
</svg>
